<?xml version="1.0" standalone="no"?>
<!DOCTYPE svg PUBLIC "-//W3C//DTD SVG 20010904//EN"
 "http://www.w3.org/TR/2001/REC-SVG-20010904/DTD/svg10.dtd">
<svg version="1.0" xmlns="http://www.w3.org/2000/svg"
 width="254.000000pt" height="255.000000pt" viewBox="0 0 254.000000 255.000000"
 preserveAspectRatio="xMidYMid meet">
<metadata>
Created by potrace 1.15, written by Peter Selinger 2001-2017
</metadata>
<g transform="translate(0.000000,255.000000) scale(0.100000,-0.100000)"
fill="#000000" stroke="none">
<path d="M1042 2506 c-254 -48 -474 -165 -658 -350 -162 -161 -271 -351 -332
-574 -24 -91 -26 -111 -26 -312 0 -201 2 -221 26 -312 121 -446 460 -785 906
-906 91 -24 111 -26 312 -26 201 0 221 2 312 26 223 61 413 170 574 332 162
161 271 351 332 574 24 91 26 111 26 312 0 201 -2 221 -26 312 -121 447 -463
788 -906 905 -84 22 -122 26 -282 29 -128 2 -207 -1 -258 -10z m380 -523 c85
-40 151 -106 191 -191 28 -60 32 -77 32 -157 0 -80 -4 -97 -32 -157 -40 -85
-106 -151 -191 -191 -61 -29 -76 -32 -162 -32 -86 0 -101 3 -162 32 -244 115
-303 426 -117 615 82 83 176 119 294 115 66 -3 94 -9 147 -34z m66 -830 c230
-47 457 -207 544 -383 43 -85 57 -156 36 -183 -12 -16 -60 -17 -793 -17 -883
0 -812 -7 -801 80 10 78 72 187 156 271 140 140 335 229 555 253 64 6 224 -4
303 -21z"/>
</g>
</svg>
